<?xml version="1.0" encoding="utf-8"?>
<!-- Generator: Adobe Illustrator 21.0.0, SVG Export Plug-In . SVG Version: 6.00 Build 0)  -->
<svg version="1.1" id="Layer_1" xmlns="http://www.w3.org/2000/svg" xmlns:xlink="http://www.w3.org/1999/xlink" x="0px" y="0px"
	 viewBox="0 0 101 150" style="enable-background:new 0 0 101 150;" xml:space="preserve">
<style type="text/css">
	.st0{fill:#5BAF5D;}
	.st1{fill:#66C468;}
	.st2{fill:#76E378;}
	.st3{fill:#4D944F;}
	.st4{fill:#9AC4F0;}
	.st5{fill:#E0E1E2;}
	.st6{fill:#958079;}
	.st7{fill:#444B52;}
	.st8{fill:#6D6E71;}
	.st9{fill:#8D8F92;}
	.st10{fill:#855E3C;}
	.st11{fill:#A37C50;}
	.st12{fill:#805E3A;}
	.st13{fill:#6C4A30;}
	.st14{fill:#FFFFFF;}
	.st15{fill:#FCD75F;}
	.st16{fill:#EB5252;}
	.st17{fill:#B09A7D;}
	.st18{fill:#325743;}
	.st19{fill:#8C6645;}
	.st20{fill:#B58A64;}
	.st21{fill:#6E5036;}
	.st22{fill:#52351C;}
	.st23{fill:#D1D3D4;}
	.st24{fill:#6B6A6E;}
	.st25{fill:#68696B;}
	.st26{fill:#757578;}
	.st27{fill:#737476;}
	.st28{fill:#F1F2F2;}
	.st29{fill:#BABCBD;}
	.st30{fill:#38B077;}
	.st31{fill:#40A7FF;}
	.st32{fill:#4081FF;}
	.st33{fill:#4B5582;}
	.st34{fill:#3ECFCF;}
	.st35{fill:#89E2E2;}
	.st36{fill:#FF84C1;}
	.st37{fill:#FFB3D1;}
	.st38{fill:#FF99C1;}
	.st39{fill:#FFC642;}
	.st40{fill:#14E398;}
	.st41{fill:#FF91F6;}
	.st42{fill:#6BFFC9;}
	.st43{fill:#FF6BF3;}
	.st44{fill:#FFD67D;}
	.st45{fill:#425B80;}
	.st46{fill:#F2AC32;}
	.st47{fill:#F268EB;}
	.st48{fill:#00A7E8;}
	.st49{fill:#C7A983;}
	.st50{fill:#AD895D;}
	.st51{fill:#5E5755;}
	.st52{fill:#F24129;}
	.st53{fill:#C73522;}
	.st54{fill:#423E3A;}
	.st55{fill:#CC2121;}
	.st56{fill:#E0E0E0;}
	.st57{fill:#A31A1A;}
	.st58{fill:#2E292A;}
	.st59{fill:#EBEBEB;}
	.st60{fill:#58595B;}
	.st61{fill:#D2D3D4;}
	.st62{fill:#AFB1B5;}
	.st63{fill:#4CE637;}
	.st64{fill:#F03E3E;}
	.st65{fill:#DADADB;}
	.st66{opacity:0.3;}
	.st67{fill:#DFE0E1;}
	.st68{fill:#2CD4F5;}
	.st69{fill:#1BCDF0;}
	.st70{fill:none;stroke:#2CD4F5;stroke-width:4;stroke-linecap:round;stroke-miterlimit:10;}
	.st71{fill:#373F61;}
	.st72{opacity:0.2;}
	.st73{fill:#FF82A0;}
	.st74{fill:#E6E6E6;}
	.st75{fill:#FF5C83;}
	.st76{fill:#D4335B;}
	.st77{fill:#A0A2A5;}
	.st78{fill:#436C8C;}
	.st79{fill:#EDEDED;}
	.st80{fill:#2BAF73;}
	.st81{fill:#50DE9D;}
	.st82{fill:#D6D6D6;}
	.st83{fill:#1B8555;}
	.st84{fill:#3B434F;}
	.st85{fill:#73DEEF;}
	.st86{fill:#DCA0FF;}
	.st87{fill:#D78DFF;}
	.st88{fill:#DC92FF;}
	.st89{fill:#73D0E4;}
	.st90{fill:#726097;}
	.st91{fill:#C8CACC;}
	.st92{fill:#9D9EA1;}
	.st93{fill:#474747;}
	.st94{fill:#DBDBDB;}
	.st95{fill:#282829;}
	.st96{fill:#F7FFE0;}
	.st97{fill:#C862D4;}
	.st98{fill:#C8CFB5;}
	.st99{fill:#793B80;}
	.st100{fill:#46385E;}
	.st101{fill:#FFE9BC;}
	.st102{fill:#4C4450;}
	.st103{fill:#363038;}
	.st104{fill:#1E232B;}
	.st105{fill:#FFBFC2;}
	.st106{fill:#AB0F19;}
	.st107{fill:#99D96F;}
	.st108{fill:#80B55C;}
	.st109{fill:#E3E3E3;}
	.st110{fill:#89C263;}
	.st111{fill:#68944B;}
	.st112{fill:#4D594D;}
	.st113{fill:#E0AFA9;}
	.st114{fill:#FFC7C0;}
	.st115{fill:#78584B;}
	.st116{fill:#FD244B;}
	.st117{fill:#D4D4D4;}
	.st118{fill:#8C6758;}
	.st119{fill:#453F3D;}
	.st120{fill:#523D34;}
	.st121{fill:#519E6C;}
	.st122{fill:#E83651;}
	.st123{fill:#ACBF6B;}
	.st124{fill:#3C7550;}
	.st125{fill:#91A352;}
	.st126{fill:#AD293D;}
	.st127{fill:#E8E8E8;}
	.st128{fill:#4D393C;}
	.st129{fill:#ABABAB;}
	.st130{fill:#E16512;}
	.st131{fill:#808080;}
	.st132{fill:#A09AF0;}
	.st133{fill:#49494A;}
	.st134{fill:#414142;}
	.st135{fill:#6B63CF;}
	.st136{fill:#7E77DB;}
	.st137{fill:#3B3B3B;}
	.st138{fill:#2A2A2B;}
	.st139{fill:#AEE826;}
	.st140{fill:#C9CBCC;}
	.st141{fill:#CCCCCC;}
	.st142{fill:#EF3934;}
	.st143{fill:#9EA0A1;}
	.st144{fill:#BF2E2A;}
	.st145{fill:#43454F;}
	.st146{fill:#48AB58;}
	.st147{fill:#2BDFFF;}
	.st148{fill:#51C264;}
	.st149{fill:#6FDE81;}
	.st150{fill:#D6C36B;}
	.st151{fill:#CE2D42;}
	.st152{fill:#B39F49;}
	.st153{fill:#962130;}
	.st154{fill:#00A000;}
	.st155{fill:#242424;}
	.st156{fill:#6F54BF;}
	.st157{fill:#45C1FF;}
	.st158{fill:#FFE492;}
	.st159{fill:#FFC9ED;}
	.st160{fill:#C1FF8F;}
	.st161{fill:#664DB0;}
	.st162{fill:#9E7DFF;}
	.st163{fill:#9070EB;}
</style>
<g>
	<g>
		<path class="st156" d="M81.909,95.596c0.165,0.487,0.212,0.997,0.157,1.531c-0.486,4.453-8.445,10.437-19.232,14.135
			c-10.881,3.73-20.925,3.856-23.925,0.542c-0.329-0.361-0.572-0.77-0.729-1.217c-1.543-4.515,7.004-11.528,19.076-15.667
			C69.336,90.775,80.374,91.081,81.909,95.596z"/>
	</g>
	<g>
		<path class="st157" d="M30.636,94c-0.085,0-0.171-0.011-0.257-0.033c-1.149-0.304-2.093-1.099-2.587-2.181
			c-0.495-1.083-0.479-2.316,0.045-3.385l0.995-2.027c0.19-0.389,0.219-0.829,0.078-1.239s-0.432-0.74-0.82-0.931
			c-0.557-0.273-1.206-0.209-1.697,0.165l-8.051,6.137c-1.018,0.776-2.301,1.01-3.528,0.635c-1.224-0.372-2.162-1.279-2.576-2.49
			c-0.518-1.512-0.162-3.085,0.905-4.169l5.207-5.289c0.559-0.568,0.746-1.39,0.488-2.143c-0.374-1.09-1.563-1.678-2.654-1.302
			l-3.227,1.104c-1.138,0.389-2.358,0.312-3.438-0.217c-1.079-0.529-1.888-1.447-2.276-2.585c-0.389-1.137-0.312-2.357,0.217-3.437
			c0.529-1.079,1.447-1.888,2.585-2.277l1.42-0.485c0.523-0.179,1.091,0.1,1.27,0.623c0.179,0.522-0.101,1.091-0.623,1.27
			l-1.42,0.485c-0.632,0.216-1.142,0.665-1.436,1.265s-0.337,1.278-0.12,1.91c0.216,0.632,0.665,1.142,1.265,1.436
			c0.599,0.293,1.278,0.337,1.909,0.121l3.228-1.104c2.131-0.73,4.462,0.413,5.193,2.546c0.504,1.475,0.139,3.082-0.955,4.193
			l-5.207,5.289c-0.533,0.542-0.71,1.329-0.461,2.057c0.226,0.658,0.688,1.104,1.288,1.287c0.601,0.184,1.234,0.07,1.733-0.312
			l8.051-6.137c1.099-0.838,2.552-0.981,3.79-0.371c0.868,0.425,1.52,1.163,1.833,2.079c0.312,0.916,0.251,1.898-0.176,2.768
			l-0.994,2.026c-0.258,0.528-0.267,1.139-0.021,1.674c0.244,0.535,0.71,0.928,1.279,1.078c0.533,0.141,0.852,0.688,0.711,1.223
			C31.483,93.704,31.078,94,30.636,94z"/>
	</g>
	<g>
		<path class="st158" d="M66.541,74c-0.212,0-0.426-0.067-0.606-0.206c-0.439-0.335-0.522-0.963-0.187-1.402
			c0.357-0.467,0.485-1.063,0.351-1.636c-0.135-0.572-0.515-1.049-1.043-1.308l-2.027-0.994c-0.869-0.426-1.52-1.165-1.833-2.08
			c-0.312-0.916-0.251-1.898,0.176-2.767c0.608-1.24,1.844-2.017,3.224-2.027L74.717,61.5c0.629-0.005,1.197-0.302,1.562-0.815
			c0.363-0.513,0.455-1.148,0.252-1.743c-0.271-0.791-0.893-1.306-1.646-1.407l-7.354-0.992c-1.545-0.209-2.818-1.255-3.323-2.73
			c-0.354-1.034-0.283-2.143,0.197-3.125c0.481-0.981,1.315-1.716,2.35-2.069l3.227-1.104c1.304-0.446,2.001-1.87,1.556-3.175
			c-0.446-1.304-1.865-2.003-3.175-1.556l-1.419,0.485c-0.521,0.178-1.091-0.1-1.27-0.623s0.1-1.091,0.623-1.27l1.419-0.485
			c2.349-0.801,4.911,0.455,5.714,2.802c0.802,2.348-0.454,4.911-2.802,5.714L67.4,50.512c-0.528,0.181-0.954,0.556-1.2,1.058
			c-0.246,0.501-0.281,1.068-0.101,1.596c0.258,0.754,0.908,1.289,1.698,1.395l7.354,0.992c1.508,0.204,2.753,1.229,3.248,2.678
			c0.437,1.275,0.249,2.567-0.491,3.611c-0.739,1.043-1.897,1.647-3.177,1.658L64.61,63.579c-0.618,0.005-1.172,0.353-1.444,0.908
			c-0.19,0.389-0.219,0.829-0.078,1.239c0.141,0.41,0.432,0.741,0.821,0.932l2.027,0.994c1.068,0.523,1.837,1.488,2.109,2.646
			c0.272,1.159,0.014,2.365-0.71,3.31C67.139,73.865,66.842,74,66.541,74z"/>
	</g>
	<g>
		<path class="st159" d="M27.996,63.003c-0.603,0-1.201-0.138-1.758-0.411c-0.959-0.47-1.678-1.286-2.023-2.297
			c-0.714-2.087,0.403-4.366,2.49-5.08c1.011-0.345,2.097-0.276,3.055,0.193c0.96,0.47,1.679,1.286,2.024,2.297l0,0
			c0.346,1.011,0.277,2.096-0.193,3.056s-1.286,1.678-2.298,2.024C28.869,62.931,28.432,63.003,27.996,63.003z M28.001,57
			c-0.218,0-0.437,0.036-0.649,0.109c-1.043,0.357-1.602,1.496-1.244,2.54c0.173,0.506,0.532,0.914,1.012,1.149
			c0.479,0.235,1.02,0.27,1.527,0.096c0.506-0.173,0.913-0.532,1.148-1.012s0.27-1.022,0.097-1.528l0,0
			c-0.173-0.505-0.532-0.913-1.012-1.148C28.601,57.068,28.302,57,28.001,57z"/>
	</g>
	<g>
		<path class="st157" d="M84.997,77.003c-0.602,0-1.2-0.138-1.757-0.41c-0.96-0.471-1.679-1.287-2.024-2.297
			c-0.346-1.011-0.277-2.096,0.193-3.056s1.286-1.678,2.298-2.024c1.011-0.345,2.097-0.276,3.055,0.193
			c0.96,0.47,1.679,1.286,2.024,2.297l0,0c0.714,2.087-0.404,4.365-2.491,5.079C85.871,76.931,85.434,77.003,84.997,77.003z
			 M85.003,71c-0.218,0-0.437,0.036-0.649,0.109c-0.506,0.173-0.913,0.532-1.148,1.012c-0.235,0.48-0.27,1.022-0.097,1.528
			c0.173,0.506,0.532,0.914,1.012,1.149c0.48,0.235,1.022,0.27,1.527,0.096c1.044-0.357,1.603-1.496,1.246-2.54l0,0
			c-0.173-0.505-0.532-0.913-1.012-1.148C85.603,71.068,85.304,71,85.003,71z"/>
	</g>
	<g>
		
			<ellipse transform="matrix(0.9462 -0.3236 0.3236 0.9462 -11.3021 9.0293)" class="st158" cx="21.5" cy="38.5" rx="1.5" ry="1.5"/>
	</g>
	<g>
		
			<ellipse transform="matrix(0.9462 -0.3236 0.3236 0.9462 -10.2274 19.4926)" class="st160" cx="53.5" cy="40.5" rx="1.5" ry="1.5"/>
	</g>
	<g>
		<ellipse transform="matrix(0.9462 -0.3236 0.3236 0.9462 -30.5007 5.5704)" class="st160" cx="1.5" cy="94.5" rx="1.5" ry="1.5"/>
	</g>
	<g>
		<g>
			<path class="st161" d="M45.956,100.222c-5.593,3.537-8.767,7.466-7.776,10.365c0.157,0.448,0.399,0.856,0.729,1.217
				c2.494,2.754,9.857,3.124,18.519,1.031L45.956,100.222z"/>
		</g>
	</g>
	<g>
		
			<ellipse transform="matrix(0.9462 -0.3236 0.3236 0.9462 -30.989 12.6357)" class="st159" cx="22.5" cy="99.5" rx="1.5" ry="1.5"/>
	</g>
	<g>
		
			<ellipse transform="matrix(0.9462 -0.3236 0.3236 0.9462 -30.8295 19.593)" class="st158" cx="43.5" cy="102.5" rx="1.5" ry="1.5"/>
	</g>
	<g>
		
			<ellipse transform="matrix(0.9462 -0.3236 0.3236 0.9462 -27.2197 29.3021)" class="st159" cx="74.5" cy="96.5" rx="1.5" ry="1.5"/>
	</g>
	<g>
		
			<ellipse transform="matrix(0.9462 -0.3236 0.3236 0.9462 -7.6952 26.7207)" class="st159" cx="76.5" cy="36.5" rx="1.5" ry="1.5"/>
	</g>
	<g>
		
			<ellipse transform="matrix(0.9462 -0.3236 0.3236 0.9462 -15.3506 18.6819)" class="st157" cx="48.5" cy="55.5" rx="1.5" ry="1.5"/>
	</g>
	<g>
		
			<ellipse transform="matrix(0.9462 -0.3236 0.3236 0.9462 -14.0614 32.4351)" class="st158" cx="90.5" cy="58.5" rx="1.5" ry="1.5"/>
	</g>
	<g>
		
			<ellipse transform="matrix(0.9462 -0.3236 0.3236 0.9462 -9.6937 34.7019)" class="st160" cx="99.5" cy="46.5" rx="1.5" ry="1.5"/>
	</g>
	<g>
		<path class="st158" d="M51.767,116c-0.273,0-0.546-0.111-0.743-0.331c-0.36-0.4-0.632-0.863-0.808-1.377
			c-0.346-1.012-0.277-2.097,0.193-3.056c0.471-0.96,1.286-1.679,2.298-2.024c1.011-0.347,2.097-0.275,3.055,0.193
			c0.96,0.471,1.679,1.287,2.024,2.298c0.294,0.861,0.289,1.771-0.015,2.629c-0.183,0.521-0.755,0.795-1.275,0.609
			c-0.521-0.184-0.794-0.755-0.609-1.275c0.151-0.431,0.154-0.886,0.007-1.316c-0.173-0.505-0.532-0.913-1.012-1.148
			c-0.48-0.235-1.021-0.27-1.528-0.097c-0.506,0.173-0.913,0.532-1.148,1.012s-0.27,1.022-0.097,1.528
			c0.088,0.257,0.224,0.488,0.401,0.687c0.37,0.411,0.336,1.043-0.074,1.412C52.244,115.915,52.005,116,51.767,116z"/>
	</g>
	<g>
		<path class="st160" d="M63.213,102.203c-0.416,0-0.804-0.261-0.946-0.677c-0.179-0.522,0.1-1.091,0.623-1.27l1.419-0.485
			c0.632-0.216,1.142-0.665,1.436-1.265s0.337-1.277,0.12-1.909c-0.216-0.633-0.665-1.143-1.265-1.437
			c-0.6-0.292-1.279-0.336-1.909-0.12l-3.227,1.104c-2.133,0.729-4.464-0.412-5.194-2.546c-0.504-1.477-0.137-3.083,0.956-4.194
			l5.206-5.288c0.533-0.542,0.71-1.329,0.461-2.057c-0.225-0.658-0.687-1.104-1.288-1.287c-0.602-0.185-1.234-0.069-1.733,0.312
			l-8.05,6.137c-1.101,0.838-2.553,0.98-3.791,0.371c-0.868-0.425-1.52-1.163-1.833-2.079c-0.312-0.916-0.251-1.898,0.176-2.768
			l0.994-2.026c0.259-0.528,0.267-1.138,0.022-1.673s-0.71-0.929-1.279-1.079c-0.533-0.142-0.853-0.688-0.711-1.223
			c0.141-0.534,0.693-0.85,1.223-0.711c1.149,0.304,2.093,1.1,2.587,2.182c0.494,1.083,0.478,2.316-0.047,3.385l-0.994,2.026
			c-0.19,0.389-0.219,0.829-0.078,1.239s0.432,0.74,0.82,0.931c0.555,0.273,1.207,0.209,1.699-0.166l8.049-6.136
			c1.018-0.775,2.303-1.007,3.527-0.636c1.224,0.372,2.164,1.28,2.578,2.49c0.517,1.513,0.161,3.086-0.906,4.17l-5.206,5.289
			c-0.56,0.568-0.747,1.39-0.489,2.144c0.373,1.089,1.56,1.673,2.655,1.301l3.226-1.104c1.138-0.389,2.358-0.312,3.438,0.217
			s1.888,1.447,2.276,2.585c0.389,1.137,0.312,2.357-0.217,3.438c-0.529,1.079-1.447,1.888-2.585,2.276l-1.419,0.485
			C63.43,102.186,63.32,102.203,63.213,102.203z"/>
	</g>
	<g>
		<path class="st162" d="M82.105,97.128l-4.003,49.976c-0.219,2.741-3.596,3.895-5.437,1.869l-33.78-37.145l0.024-0.024
			c3,3.314,13.044,3.188,23.925-0.542c10.787-3.699,18.747-9.683,19.232-14.135H82.105z"/>
	</g>
	<g>
		<g>
			<path class="st163" d="M56.913,112.965c-8.439,1.956-15.56,1.54-18.004-1.16l-0.023,0.024l33.78,37.145
				c1.841,2.026,5.218,0.872,5.437-1.869l0.798-9.962L56.913,112.965z"/>
		</g>
	</g>
</g>
</svg>
