<?xml version="1.0" encoding="utf-8"?>
<!-- Generator: Adobe Illustrator 19.2.0, SVG Export Plug-In . SVG Version: 6.00 Build 0)  -->
<svg version="1.1" id="Layer_1" xmlns="http://www.w3.org/2000/svg" xmlns:xlink="http://www.w3.org/1999/xlink" x="0px" y="0px"
	 viewBox="0 0 150 150" style="enable-background:new 0 0 150 150;" xml:space="preserve">
<style type="text/css">
	.st0{fill:#7C634F;}
	.st1{fill:#D0D2D3;}
	.st2{fill:#6ECAF3;}
	.st3{fill:#CED0D1;}
	.st4{fill:#F6CC78;}
	.st5{fill:#BBBDBF;}
	.st6{fill:#58595B;}
	.st7{fill:#FFB4D3;}
	.st8{fill:#A6A8AB;}
	.st9{opacity:0.2;fill:#FFFFFF;}
	.st10{fill:#4F3E31;}
	.st11{fill:#EBEBEC;}
	.st12{fill:#E0E1E2;}
	.st13{fill:#D1D2D4;}
	.st14{fill:#534235;}
	.st15{fill:#4A3A2E;}
	.st16{fill:#F8C1D9;}
	.st17{fill:#FFFFFF;}
	.st18{fill:#E4E5E6;}
	.st19{fill:#836854;}
	.st20{fill:#745D4A;}
	.st21{fill:#F3A5C8;}
	.st22{fill:#66493C;}
	.st23{fill:#6F5043;}
	.st24{fill:#4C3C34;}
</style>
<path class="st0" d="M68,121v4c0,1.94,0.78,3.68,2.05,4.95c1.27,1.27,3.01,2.05,4.95,2.05c3.87,0,7-3.13,7-7v-4l0.03-0.45
	c-2.35-0.73-4.33-2.3-5.58-4.37c-0.78-1.28-1.28-2.74-1.41-4.32c0.32-5.77,3.09-10.89,7.29-14.33C85.78,94.7,90.19,93,95,93
	c5.5,0,10.48,2.22,14.1,5.82c3.65,3.62,5.9,8.63,5.9,14.18c0,5.1-1.92,9.76-5.07,13.3c-1.1,1.25-2.36,2.35-3.75,3.28l0.82,0.11
	c4.49,4.6,7.35,10.21,7.9,16.31l0.01,0.12C103.44,147.31,89.73,148,75,148s-28.44-0.69-39.91-1.88L35.1,146
	c0.55-6.1,3.41-11.71,7.9-16.31l0.04-0.66c-1.09-0.81-2.08-1.72-2.97-2.73C36.92,122.76,35,118.1,35,113
	c0-5.27,2.04-10.07,5.38-13.64C44.02,95.44,49.22,93,55,93c4.81,0,9.23,1.7,12.68,4.54c4.2,3.44,6.96,8.55,7.28,14.32
	C74.54,116.81,68,121,68,121z"/>
<path class="st10" d="M110,126.36c22.64,1.96,38,5.75,38,10.12c0,4.04-13.16,7.59-33.09,9.64L114.9,146
	c-0.55-6.1-3.41-11.71-7.9-16.31l-0.82-0.11c1.39-0.93,2.65-2.03,3.75-3.28L110,126.36z"/>
<path class="st11" d="M58.59,10.53c4.21-5.19,10.66-8.5,17.88-8.5c10.8,0,19.85,7.41,22.32,17.4c0.24-0.03,0.48-0.05,0.73-0.07
	c0.14-0.01,0.29-0.02,0.43-0.03c0.28-0.02,0.56-0.03,0.84-0.03c8.4,0,15.21,6.77,15.21,15.13c0,5.34-2.79,8.69-6.98,11.38
	c-0.72,0.46-1.26,1.11-5.12,1.11c0,0-36.86,0.06-52.26,0.08c-10.41,0.02-19.07-8.5-18.58-18.84c0.02-0.36,0.04-0.71,0.08-1.07
	c0.89-8.82,7.88-16.04,16.71-17.24c3.06-0.42,6-0.12,8.69,0.74C58.56,10.57,58.57,10.55,58.59,10.53z"/>
<path class="st10" d="M43.04,129.03L43,129.69c-4.49,4.6-7.35,10.21-7.9,16.31l-0.01,0.12C15.16,144.07,2,140.52,2,136.48
	c0-4.37,15.36-8.16,38-10.12l0.07-0.06C40.96,127.31,41.95,128.22,43.04,129.03z"/>
<path class="st12" d="M58.54,10.59c-2.69-0.86-5.63-1.16-8.69-0.74c-8.83,1.2-15.82,8.42-16.71,17.24
	c-0.04,0.36-0.06,0.71-0.08,1.07C32.57,38.5,41.23,47.02,51.64,47c3.153-0.004,7.212-0.01,11.664-0.016
	C53.046,46.82,44.575,38.388,45.06,28.16c0.02-0.36,0.04-0.71,0.08-1.07c0.89-8.82,5.843-13.875,13.45-16.56
	C58.57,10.55,58.56,10.57,58.54,10.59"/>
<path class="st13" d="M101.474,17.334c-0.134-0.028-0.272-0.044-0.415-0.044c-0.118,0-0.236,0.002-0.354,0.01
	c-0.021,0-0.041,0.002-0.061,0.002c-0.126,0.001-0.251,0.002-0.377,0.007C96.979,7.054,87.426,0.03,76.47,0.03
	c-7.145,0-13.843,2.989-18.577,8.242c-1.328-0.322-2.693-0.51-4.081-0.574c-0.054-0.003-0.108-0.003-0.163-0.006
	C53.362,7.681,53.078,7.66,52.79,7.66c-0.086,0-0.168,0.015-0.251,0.025c-0.982,0.003-1.967,0.047-2.958,0.183
	c-9.701,1.318-17.452,9.317-18.429,19.001c-0.044,0.397-0.067,0.783-0.09,1.196c-0.255,5.385,1.693,10.538,5.488,14.508
	C40.454,46.659,45.939,49,51.603,49c0.013,0,0.026,0,0.04,0c15.4-0.02,52.261-0.08,52.258-0.08c3.793,0,4.979-0.597,6.038-1.318
	l0.161-0.108c3.392-2.177,7.9-5.9,7.9-13.063C118,25.214,110.645,17.696,101.474,17.334z M107.942,44.125l-0.256,0.17
	c-0.387,0.264-0.917,0.625-3.789,0.625c0,0-36.86,0.06-52.261,0.08c-0.011,0-0.021,0-0.032,0c-4.578,0-9.01-1.891-12.162-5.189
	c-3.03-3.171-4.587-7.275-4.385-11.54c0.018-0.323,0.035-0.637,0.073-0.98c0.795-7.885,7.1-14.387,14.992-15.459
	c0.828-0.114,1.651-0.17,2.47-0.17c1.814,0,3.602,0.279,5.339,0.834c0.132,0.042,0.266,0.055,0.401,0.068
	c4.794,1.581,8.662,5.109,10.636,9.749c0.324,0.761,1.063,1.217,1.842,1.217c0.261,0,0.526-0.051,0.782-0.16
	c1.017-0.433,1.489-1.607,1.058-2.624c-2.078-4.884-5.86-8.77-10.596-11.006C65.925,6.087,71.041,4.03,76.47,4.03
	c9,0,16.863,5.641,19.789,13.938c-6.886,2.014-12.025,8.247-12.416,15.566c-0.059,1.103,0.787,2.045,1.891,2.104
	c0.036,0.002,0.072,0.003,0.108,0.003c1.056,0,1.938-0.827,1.995-1.893c0.343-6.414,5.447-11.741,11.812-12.391
	c0.009-0.001,0.018-0.002,0.028-0.003l0.416-0.029c0.232-0.017,0.465-0.025,0.697-0.025c7.284,0,13.21,5.89,13.21,13.13
	C114,38.5,112.188,41.4,107.942,44.125z"/>
<path class="st14" d="M110,126.36l-0.07-0.06c-0.529,0.602-1.098,1.166-1.698,1.696c14.496,2.106,23.588,5.123,23.588,8.484
	c0,2.832-6.475,5.423-17.21,7.426c0.124,0.692,0.226,1.389,0.29,2.094l0.01,0.12c19.93-2.05,33.09-5.6,33.09-9.64
	C148,132.11,132.64,128.32,110,126.36z"/>
<path class="st15" d="M40,126.36l0.07-0.06c0.529,0.602,1.098,1.166,1.698,1.696c-14.496,2.106-23.588,5.123-23.588,8.484
	c0,2.832,6.475,5.423,17.21,7.426c-0.124,0.692-0.226,1.389-0.29,2.094l-0.01,0.12C15.16,144.07,2,140.52,2,136.48
	C2,132.11,17.36,128.32,40,126.36z"/>
<path class="st0" d="M102.94,87.33c2.63,3.48,4.83,7.28,6.16,11.49C105.48,95.22,100.5,93,95,93c-4.81,0-9.22,1.7-12.67,4.53
	L82,97.12C80.63,94.66,78.01,93,75,93s-5.64,1.67-7,4.13l-0.32,0.41C64.23,94.7,59.81,93,55,93c-5.78,0-10.98,2.44-14.62,6.36L40,99
	c1.23-4.27,2.84-8.22,5.46-11.67C44.05,85.6,43.2,83.4,43.2,81c0-5.52,4.48-10,10-10c3.42,0,6.43,1.72,8.24,4.34
	C65.4,73.83,69.7,73,74.2,73c4.49,0,8.79,0.83,12.76,2.34c1.8-2.62,4.82-4.34,8.24-4.34c5.52,0,10,4.48,10,10
	C105.2,83.4,104.35,85.6,102.94,87.33z"/>
<path class="st16" d="M75,111c0,0.29-0.01,0.58-0.04,0.86c-0.32-5.77-3.08-10.88-7.28-14.32L68,97.13c1.36-2.46,3.99-4.13,7-4.13
	s5.63,1.66,7,4.12l0.33,0.41c-4.2,3.44-6.97,8.56-7.29,14.33C75.01,111.58,75,111.29,75,111z"/>
<path class="st17" d="M82.03,120.55L82,121v4c0,3.87-3.13,7-7,7v-15l1.45-0.82C77.7,118.25,79.68,119.82,82.03,120.55z"/>
<path class="st18" d="M76.45,116.18L75,117v15c-1.94,0-3.68-0.78-4.95-2.05C68.78,128.68,68,126.94,68,125v-4l-2.49-0.01
	c5-0.26,9.03-4.18,9.45-9.13c0.03,0.38,0.04,0.76,0.04,1.14c0-0.38,0.01-0.76,0.04-1.14C75.17,113.44,75.67,114.9,76.45,116.18z"/>
<g>
	<path class="st19" d="M96.2,81c0,2.4-0.85,4.6-2.26,6.33c1.407,1.861,2.684,3.818,3.777,5.876
		c4.411,0.601,8.371,2.619,11.383,5.614c-1.33-4.21-3.53-8.01-6.16-11.49c1.41-1.73,2.26-3.93,2.26-6.33c0-5.52-4.48-10-10-10
		c-1.62,0-3.144,0.396-4.497,1.081C93.96,73.73,96.2,77.101,96.2,81z"/>
</g>
<g>
	<path class="st20" d="M53.8,81c0,2.4,0.85,4.6,2.26,6.33c-1.407,1.861-2.684,3.818-3.777,5.876
		c-4.411,0.601-8.371,2.619-11.383,5.614c1.33-4.21,3.53-8.01,6.16-11.49C45.65,85.6,44.8,83.4,44.8,81c0-5.52,4.48-10,10-10
		c1.62,0,3.144,0.396,4.497,1.081C56.04,73.73,53.8,77.101,53.8,81z"/>
</g>
<g>
	<path class="st21" d="M68.01,97.12c0.586-1.053,1.412-1.946,2.389-2.638L70.36,94.53c3.103,2.542,5.422,6.002,6.552,9.962
		c-1.062,2.257-1.717,4.743-1.862,7.368c-0.03-0.28-0.04-0.57-0.04-0.86c0,0.29-0.01,0.58-0.04,0.86
		c-0.32-5.77-3.09-10.89-7.29-14.33L68.01,97.12z"/>
</g>
<g>
	<path class="st20" d="M44.09,146.12L44.1,146c0.55-6.1,3.41-11.71,7.9-16.31l0.04-0.66c-1.09-0.81-2.08-1.72-2.97-2.73
		C45.92,122.76,44,118.1,44,113c0-5.27,2.04-10.07,5.38-13.64c2.657-2.862,6.148-4.929,10.087-5.84C58.028,93.191,56.537,93,55,93
		c-5.78,0-10.98,2.44-14.62,6.36C37.04,102.93,35,107.73,35,113c0,5.1,1.92,9.76,5.07,13.3c0.89,1.01,1.88,1.92,2.97,2.73L43,129.69
		c-4.49,4.6-7.35,10.21-7.9,16.31l-0.01,0.12C35.09,146.12,44.1,146,44.09,146.12z"/>
</g>
<g>
	<path class="st19" d="M106.41,146.12L106.4,146c-0.55-6.1-3.41-11.71-7.9-16.31l-0.04-0.66c1.09-0.81,2.08-1.72,2.97-2.73
		c3.15-3.54,5.07-8.2,5.07-13.3c0-5.27-2.04-10.07-5.38-13.64c-2.657-2.862-6.148-4.929-10.087-5.84
		C92.472,93.191,93.963,93,95.5,93c5.78,0,10.98,2.44,14.62,6.36c3.34,3.57,5.38,8.37,5.38,13.64c0,5.1-1.92,9.76-5.07,13.3
		c-0.89,1.01-1.88,1.92-2.97,2.73l0.04,0.66c4.49,4.6,7.35,10.21,7.9,16.31l0.01,0.12C114.9,146,106.4,146,106.41,146.12z"/>
</g>
<g>
	<circle class="st22" cx="83" cy="87" r="2"/>
	<circle class="st22" cx="67" cy="87" r="2"/>
	<path class="st23" d="M40.476,129.501c-3.821,4.303-6.254,9.229-7.115,14.423c0.633,0.07,1.273,0.139,1.933,0.207
		c0.669,0.069,1.367,0.13,2.048,0.196c0.794-4.467,2.979-8.721,6.376-12.452C47.118,133.917,50.973,135,55,135c1.104,0,2-0.896,2-2
		s-0.896-2-2-2c-3.915,0-7.637-1.235-10.767-3.574c-0.974-0.725-1.87-1.548-2.669-2.455C38.621,121.663,37,117.411,37,113
		c0-4.579,1.719-8.938,4.845-12.278C45.271,97.032,49.943,95,55,95c4.158,0,8.21,1.45,11.412,4.087
		c3.84,3.145,6.209,7.77,6.535,12.756c-0.405,3.883-3.618,6.946-7.552,7.15c-0.102,0.006-0.203,0.007-0.306,0.007
		c-0.305,0.004-0.607-0.014-0.906-0.041c-1.118-0.099-2.073,0.709-2.174,1.809c-0.102,1.1,0.709,2.073,1.809,2.174
		C64.208,122.978,64.598,123,65,123c0.208,0,0.416-0.001,0.613-0.013c0.13-0.007,0.257-0.027,0.387-0.038V125
		c0,2.403,0.936,4.663,2.636,6.365C70.337,133.064,72.597,134,75,134c4.963,0,9-4.037,9-9v-2.045c0.333,0.028,0.666,0.045,1,0.045
		c0.402,0,0.792-0.022,1.183-0.059c1.1-0.101,1.91-1.074,1.809-2.174c-0.101-1.1-1.058-1.908-2.174-1.809
		c-1.05,0.097-2.153,0.003-3.194-0.319c-1.866-0.579-3.45-1.819-4.466-3.501c-0.614-1.008-0.979-2.11-1.104-3.315
		c0.316-4.952,2.692-9.592,6.545-12.748C86.804,96.448,90.853,95,95,95c4.671,0,9.067,1.782,12.434,5.008
		c0.156,0.266,0.373,0.475,0.622,0.632c3.182,3.349,4.944,7.71,4.944,12.36c0,4.412-1.621,8.663-4.572,11.979
		c-0.98,1.115-2.111,2.104-3.369,2.945C102.087,129.937,98.609,131,95,131c-1.104,0-2,0.896-2,2s0.896,2,2,2
		c4.011,0,7.885-1.087,11.281-3.127c3.397,3.731,5.582,7.985,6.376,12.453c0.681-0.066,1.378-0.126,2.047-0.196
		c0.66-0.068,1.301-0.137,1.935-0.207c-0.86-5.19-3.29-10.11-7.103-14.409c0.67-0.59,1.302-1.219,1.888-1.885
		C115.02,123.589,117,118.394,117,113c0-5.734-2.188-11.109-6.14-15.215c-1.17-3.534-2.957-6.978-5.454-10.478
		c1.165-1.891,1.795-4.081,1.795-6.307c0-6.617-5.383-12-12-12c-3.424,0-6.657,1.461-8.917,3.973c-7.789-2.623-16.408-2.618-24.17,0
		C59.847,70.462,56.614,69,53.2,69c-6.617,0-12,5.383-12,12c0,2.232,0.633,4.429,1.804,6.322c-2.036,3-3.616,6.577-4.926,11.124
		c-0.059,0.206-0.075,0.413-0.068,0.616C34.781,102.985,33,107.874,33,113c0,5.393,1.98,10.589,5.569,14.622
		C39.158,128.29,39.805,128.909,40.476,129.501z M80,121.897V125c0,2.757-2.243,5-5,5c-1.335,0-2.592-0.521-3.535-1.464
		C70.521,127.592,70,126.335,70,125v-3.105c2.038-0.942,3.768-2.438,5-4.29C76.237,119.484,77.968,120.965,80,121.897z
		 M74.999,103.858c-1.125-2.46-2.702-4.708-4.662-6.615C71.464,95.844,73.168,95,75,95c1.829,0,3.533,0.844,4.664,2.241
		C77.702,99.152,76.124,101.402,74.999,103.858z M47.053,88.54c0.559-0.735,0.541-1.758-0.042-2.474
		C45.826,84.613,45.2,82.861,45.2,81c0-4.411,3.589-8,8-8c2.625,0,5.09,1.3,6.595,3.477c0.523,0.757,1.494,1.063,2.358,0.732
		c7.679-2.928,16.378-2.934,24.096,0c0.863,0.33,1.837,0.023,2.359-0.736C90.103,74.298,92.566,73,95.2,73c4.411,0,8,3.589,8,8
		c0,1.86-0.626,3.612-1.811,5.067c-0.582,0.714-0.601,1.733-0.045,2.469c1.168,1.545,2.174,3.068,3.043,4.586
		C101.486,91.748,98.303,91,95,91c-4.362,0-8.63,1.317-12.233,3.728C80.884,92.403,78.045,91,75,91c-3.05,0-5.886,1.404-7.765,3.73
		C63.636,92.318,59.368,91,55,91c-3.938,0-7.777,1.071-11.116,3.025C44.798,91.939,45.829,90.151,47.053,88.54z"/>
</g>
<path class="st24" d="M113.619,124.686c-0.648,1.032-1.374,2.021-2.195,2.944c-0.241,0.274-0.495,0.538-0.751,0.799
	c27.837,2.484,35.021,6.757,35.329,8.029c-0.275,1.153-6.309,4.927-29.363,7.466l0,0c-0.634,0.07-1.275,0.139-1.935,0.207
	C102.912,145.354,89.183,146,75,146c-13.378,0-26.33-0.582-37.657-1.673l0,0c-0.682-0.066-1.379-0.126-2.048-0.196
	c-24.658-2.536-31.014-6.488-31.296-7.629c0.308-1.316,7.494-5.59,35.34-8.074c-0.263-0.263-0.523-0.528-0.768-0.806
	c-0.819-0.92-1.542-1.907-2.189-2.936C12.241,127.023,0,130.987,0,136.48c0,1.989,0,8.041,34.884,11.629
	C46.811,149.347,60.683,150,75,150c14.318,0,28.19-0.653,40.115-1.891c8.628-0.887,34.885-3.588,34.885-11.629
	C150,130.988,137.758,127.023,113.619,124.686z"/>
</svg>
